# xmcd
#
# Track frame offsets: 
#        187
#        16145
#        30925
#        45055
#        57692
#        72255
#        84875
#        99247
#        113362
#        126762
#        143287
#        158215
#        174055
#        190250
#        204065
#        217130
#        231555
#        244180
#        254982
#
# Disc length: 3592 seconds
#
# Revision: 1
# Processed by: cddbd v1.5.2PL0 Copyright (c) Steve Scherf et al.
# Submitted via: ExactAudioCopy v0.95b4
#
DISCID=f00e0613
DTITLE=Charlie Parker - Charlie Parker With Strings Complete Master Ta
DTITLE=kes
DYEAR=1949
DGENRE=Jazz
TTITLE0=Just Friends <S. Lewis, J. Klenner>
TTITLE1=Everything Happens To Me <T. Adair, M. Dennis>
TTITLE2=April In Paris <E. Y. Harburg, V. Duke>
TTITLE3=Summertime <G. Gershwin, D. Heyward>
TTITLE4=I Didn't Know What Time It Was <R. Rodgers, L. Hart>
TTITLE5=If I Should Lose You <R. Rainger, L. Robbins>
TTITLE6=Dancing In The Dark <A. Schwartz, H. Dietz>
TTITLE7=Out Of Nowhere <J. Green, F. Heyman>
TTITLE8=Laura <J. Mercer, D. Raskin>
TTITLE9=East Of The Sun (West Of The Moon) <B. Bowman>
TTITLE10=They Can't Take That Away From Me <G. and I. Gershwin>
TTITLE11=Easy To Love <C. Porter>
TTITLE12=I'm In The Mood For Love <J. McHugh, D. Fields>
TTITLE13=I'll Remember April <D. Raye, J. de Paul, P. Johnson>
TTITLE14=What Is This Thing Called Love <C. Porter>
TTITLE15=April In Paris <E. Y. Harburg, V. Duke>
TTITLE16=Repitition <N. Hefti>
TTITLE17=Easy To Love <C. Porter>
TTITLE18=Rocker <G. Mulligan>
EXTD=YEAR: 1949,1950
EXTT0=
EXTT1=
EXTT2=
EXTT3=
EXTT4=
EXTT5=
EXTT6=
EXTT7=
EXTT8=
EXTT9=
EXTT10=
EXTT11=
EXTT12=
EXTT13=
EXTT14=
EXTT15=
EXTT16=
EXTT17=
EXTT18=
PLAYORDER=
